<svg width="40" height="40" viewBox="0 0 40 40" fill="none" xmlns="http://www.w3.org/2000/svg">
<path fill-rule="evenodd" clip-rule="evenodd" d="M24.7742 20.848C16.5334 18.4164 10.2548 13.6647 2.36254 17.1361C2.36254 17.1361 5.49175 12.1635 12.5376 12.7994C19.5834 13.4349 27.6144 21.296 37.6422 17.0696C37.6422 17.0696 33.0168 23.2798 24.7742 20.848ZM13.3702 7.55935C6.40535 7.55935 3.49794 11.8516 3.49794 11.8516C11.7368 7.68978 15.8784 12.6979 23.8202 14.9642C31.825 17.2489 36.0968 11.6669 36.0968 11.6669C25.4812 15.5646 20.3574 7.55935 13.3702 7.55935ZM20.6036 0.0106704C9.60375 -0.34715 0.373741 8.3389 0.00994107 19.3506C-0.334859 30.3731 8.33255 39.6331 19.3388 39.9905C30.3364 40.3269 39.6398 31.6421 39.9894 20.6256C40.3476 9.6089 31.593 0.36248 20.6036 0.0106704Z" fill="#6E0B73"/>
</svg>
