<svg width="40" height="40" viewBox="0 0 40 40" fill="none" xmlns="http://www.w3.org/2000/svg">
<path d="M0 19.8628C0 8.7766 8.96974 0 20.0175 0C31.0559 0 40 8.99701 40 20.095C40 31.2117 31.0559 40 20.0175 40C8.96974 40 0 30.9913 0 19.8628Z" fill="#2A027E"/>
<path d="M9.12208 13.9712H14.8174L7.71807 26.333H2.00879L9.12208 13.9712ZM18.7343 19.13C18.6154 19.3434 18.5291 19.6107 18.5291 19.8639C18.5291 20.694 19.1961 21.3622 20.0194 21.3622C20.8333 21.3622 21.4817 20.694 21.4817 19.8639C21.4817 19.1487 20.9663 18.5414 20.2806 18.4148L22.7737 14.0699C24.9171 15.1016 26.4097 17.3221 26.4097 19.8639C26.4097 23.4304 23.541 26.3051 20.0194 26.3051C16.4884 26.3051 13.5918 23.4304 13.5918 19.8639C13.5918 18.7126 13.9323 17.6059 14.4664 16.6539L16.022 13.9714H21.7149L18.7343 19.13Z" fill="white"/>
</svg>
