<svg width="40" height="40" viewBox="0 0 40 40" fill="none" xmlns="http://www.w3.org/2000/svg">
  <circle cx="20" cy="20" r="20" fill="#DDDDDD"/>
  <path d="M18.9979 27.6596C13.8273 27.1597 9.25143 24.6485 7.55615 21.7515C7.64421 22.2947 8.25593 23.481 8.53601 24.2629C8.74038 24.8356 9.03691 25.3019 9.17544 25.7221C11.3159 27.2551 13.7719 28.0559 17.1485 28.3824C20.6293 28.7185 23.6904 28.2874 26.1043 27.1214C23.9861 27.6668 21.6527 27.9149 18.9979 27.6596Z" fill="#F5D303"/>
  <path d="M14.9688 17.1256C13.1891 15.1676 11.5909 13.1891 10.207 11.2605C10.0204 11.5075 9.81085 11.797 9.5903 12.1251C9.28609 12.5748 9.04085 12.9967 8.85596 13.3476C10.2177 14.8573 11.7267 16.3814 13.3616 17.8772C18.0206 22.141 22.5605 24.9084 26.1881 26.9044C22.9177 24.469 18.9536 21.5045 14.9688 17.1256Z" fill="#F5D303"/>
  <path d="M22.3243 13.6667C20.9938 10.987 19.9525 9.21306 18.4197 7.13184C18.2208 7.15321 17.8867 7.32253 17.298 7.41551C16.8569 7.48602 16.4086 7.43994 16.0518 7.58455C18.2874 9.95918 20.0911 12.4434 22.0747 16.0183C24.3317 20.083 25.4636 23.3248 26.4143 26.7159C26.0114 22.811 24.8332 18.7199 22.3243 13.6667Z" fill="#F5D303"/>
  <path d="M20.1488 31.8043C13.6821 31.8043 8.43961 26.6751 8.43961 20.3467C8.43961 14.0189 13.6497 9.07318 20.117 9.07318C26.4578 9.07318 31.6528 13.8208 31.8517 19.9784C31.8578 19.8202 31.8619 19.6606 31.8619 19.501C31.8619 12.5961 26.2965 7 19.4309 7C12.5659 7 7 12.5961 7 19.501C7 26.4042 12.5659 32 19.4309 32C20.7693 32 22.0578 31.7863 23.2656 31.3932C22.2731 31.66 21.2285 31.8043 20.1488 31.8043Z" fill="#265092"/>
  <path d="M13.4505 14.2117C17.8818 9.64097 24.7762 9.29456 28.849 13.4384C31.3365 15.9701 32.3246 19.789 31.4745 23.0643C32.6263 19.1672 31.9211 14.7499 28.996 11.7736C24.712 7.41402 17.4868 7.68743 13.0552 12.2596C10.137 15.2701 9.08804 19.4373 9.9354 23.1773C9.81361 20.0371 10.9978 16.7418 13.4505 14.2117Z" fill="#9C1574"/>
  <path d="M31.2525 20.6301C31.216 17.8791 30.1769 15.3349 28.2657 14.0034C24.5696 11.4303 18.8276 13.4429 15.2486 18.7323C13.3956 21.4709 12.5304 24.4983 12.6363 27.1394C11.8166 24.0428 12.4917 20.2051 14.7414 16.8804C18.3212 11.591 24.5251 9.60358 28.6004 12.4406C31.0141 14.1208 32.1871 17.1405 31.9586 20.4039C31.9586 20.4039 31.8856 21.3446 31.7986 21.7551C31.7161 22.1451 31.5021 22.9903 31.4173 23.239C31.3331 23.4866 31.2525 20.6301 31.2525 20.6301Z" fill="#25845C"/>
  <path d="M18.9694 19.0316C15.3196 22.9479 14.4934 28.1579 17.1249 30.6685C17.2417 30.7807 17.3635 30.8836 17.49 30.9808C15.1734 28.6367 15.8693 24.1473 19.0742 20.644C22.0195 17.4228 27.0313 16.015 29.4565 18.3302C31.5945 20.3706 31.3084 24.2874 28.963 27.5989C32.2129 23.7537 32.8564 18.887 30.3409 16.4874C27.7097 13.9773 22.6184 15.1162 18.9694 19.0316Z" fill="#D06519"/>
  <path d="M22.3762 23.0232C19.9192 25.1833 19.0976 28.2962 20.5413 29.9786C21.6726 31.2959 23.8581 31.3431 25.9327 30.2625C24.1881 31.0758 22.388 30.9759 21.4287 29.8587C20.1479 28.3673 20.8494 25.6296 22.994 23.7432C25.1399 21.8577 27.9166 21.5376 29.1965 23.0296C30.1567 24.1471 30.0039 25.9643 28.9634 27.599C30.3094 25.6718 30.5692 23.4745 29.4385 22.1575C27.995 20.4765 24.8324 20.8631 22.3762 23.0232Z" fill="#B6161A"/>
</svg>
