<svg width="40" height="40" viewBox="0 0 40 40" fill="none" xmlns="http://www.w3.org/2000/svg">
  <circle cx="20" cy="20" r="20" fill="#E60005"/>
  <path d="M20 7.90771C19.5823 7.90771 19.1761 7.99481 18.8077 8.15438C18.4377 8.31061 18.1401 8.49972 17.8622 8.77106C17.5892 9.04404 17.3639 9.39267 17.2044 9.75774C17.0481 10.1261 16.9577 10.4912 16.9577 10.9089C16.9577 11.3266 17.0482 11.7327 17.2044 12.1011C17.3639 12.4645 17.5892 12.7753 17.8622 13.0467C18.1401 13.3213 18.4377 13.5449 18.8077 13.7044C19.1761 13.8607 19.5823 13.9511 20 13.9511C20.4209 13.9511 20.8238 13.8606 21.1922 13.7044C21.5573 13.5449 21.8664 13.3213 22.1378 13.0467C22.4107 12.7753 22.636 12.4645 22.7955 12.1011C22.9518 11.7327 23.0422 11.3266 23.0422 10.9089C23.0422 10.4912 22.9517 10.1261 22.7955 9.75774C22.636 9.39267 22.4107 9.04404 22.1378 8.77106C21.8664 8.49972 21.5573 8.31061 21.1922 8.15438C20.8238 7.99487 20.4209 7.90771 20 7.90771ZM13.9154 15.8011C13.4978 15.8011 13.1327 15.8472 12.7643 16.0067C12.396 16.1646 12.0523 16.3915 11.7776 16.6645C11.5047 16.9375 11.3172 17.2828 11.161 17.6512C11.0015 18.0162 10.9143 18.3846 10.9143 18.8023V25.4623H24.8511V27.3124H10.9143V27.6413V28.5046C10.9143 28.9239 11.0031 29.3285 11.161 29.6968C11.3172 30.0652 11.5063 30.3678 11.7776 30.6424C12.0523 30.9137 12.396 31.1423 12.7643 31.3002C13.1327 31.4597 13.4978 31.5469 13.9154 31.5469H26.0845C26.5022 31.5469 26.8672 31.4598 27.2356 31.3002C27.6056 31.1423 27.9509 30.9137 28.2223 30.6424C28.4969 30.3678 28.7205 30.0652 28.8801 29.6968C29.0396 29.3285 29.0856 28.9239 29.0856 28.5046V27.6413V21.8445H15.1488V20.0356H29.0856V18.8023C29.0856 18.3846 29.0413 18.0162 28.8801 17.6512C28.7222 17.2828 28.4969 16.9375 28.2223 16.6645C27.9509 16.3915 27.6056 16.1646 27.2356 16.0067C26.8672 15.8472 26.5022 15.8011 26.0845 15.8011H13.9154Z" fill="white"/>
</svg>
