<?xml version="1.0" encoding="utf-8"?>
<!-- Generator: Adobe Illustrator 25.2.0, SVG Export Plug-In . SVG Version: 6.00 Build 0)  -->
<svg version="1.1" id="Layer_1" xmlns="http://www.w3.org/2000/svg" xmlns:xlink="http://www.w3.org/1999/xlink" x="0px" y="0px"
	 viewBox="0 0 1400 400" style="enable-background:new 0 0 1400 400;" xml:space="preserve">
<style type="text/css">
	.st0{fill:#477BBE;}
</style>
<rect x="193" y="77.6" class="st0" width="82.2" height="28.4"/>
<rect x="193" y="77.6" class="st0" width="28.4" height="82.2"/>
<rect x="351.7" y="77.6" class="st0" width="82.2" height="28.4"/>
<rect x="405.5" y="77.6" class="st0" width="28.4" height="82.2"/>
<rect x="193.6" y="292.4" class="st0" width="82.2" height="28.4"/>
<rect x="193.6" y="238.6" class="st0" width="28.4" height="82.2"/>
<rect x="352.5" y="292.4" class="st0" width="82.2" height="28.4"/>
<rect x="406.1" y="238.6" class="st0" width="28.4" height="82.2"/>
<rect x="245.4" y="133.3" class="st0" width="136.9" height="26.3"/>
<rect x="245.4" y="185.3" class="st0" width="136.9" height="26.3"/>
<rect x="245.4" y="238.7" class="st0" width="136.9" height="26.3"/>
<g>
	<path class="st0" d="M534.2,251.9h-35.5V147.1h36.2c10.4,0,19.4,2.1,26.8,6.3c7.5,4.2,13.2,10.2,17.3,18c4,7.8,6,17.2,6,28
		c0,10.9-2,20.3-6.1,28.2s-9.9,13.9-17.5,18.1C553.9,249.8,544.8,251.9,534.2,251.9z M517.6,235.5h15.6c7.3,0,13.4-1.3,18.3-4
		c4.9-2.7,8.5-6.7,11-12c2.5-5.3,3.7-12,3.7-20s-1.2-14.7-3.7-20c-2.5-5.3-6.1-9.3-10.9-11.9c-4.8-2.6-10.7-4-17.8-4h-16.2V235.5z"
		/>
	<path class="st0" d="M611.5,162.1c-2.9,0-5.5-1-7.6-2.9c-2.1-2-3.2-4.3-3.2-7.1c0-2.8,1.1-5.2,3.2-7.1c2.1-2,4.6-2.9,7.6-2.9
		c3,0,5.5,1,7.6,2.9c2.1,2,3.1,4.3,3.1,7.1c0,2.8-1,5.1-3.1,7.1C617.1,161.1,614.5,162.1,611.5,162.1z M602.2,251.9v-78.6h18.5v78.6
		H602.2z"/>
	<path class="st0" d="M674,283c-6.7,0-12.4-0.9-17.1-2.7c-4.8-1.8-8.6-4.2-11.5-7.2c-2.9-3-4.9-6.3-6-10l16.7-4
		c0.8,1.5,1.8,3.1,3.3,4.6c1.4,1.5,3.4,2.8,5.8,3.8c2.4,1,5.5,1.5,9.2,1.5c5.3,0,9.6-1.3,13.1-3.8c3.4-2.5,5.2-6.7,5.2-12.5v-14.9
		h-0.9c-1,1.9-2.3,3.9-4.2,5.9c-1.8,2-4.2,3.7-7.2,5.1c-3,1.4-6.7,2-11.2,2c-6,0-11.5-1.4-16.4-4.3c-4.9-2.8-8.8-7.1-11.7-12.8
		c-2.9-5.7-4.3-12.8-4.3-21.4c0-8.6,1.4-15.9,4.3-21.9c2.9-6,6.8-10.5,11.7-13.6c4.9-3.1,10.4-4.6,16.4-4.6c4.6,0,8.4,0.8,11.4,2.3
		c3,1.6,5.4,3.4,7.1,5.6c1.8,2.2,3.1,4.2,4,6.1h1v-13h18.3v79.9c0,6.7-1.6,12.3-4.8,16.7c-3.2,4.4-7.6,7.7-13.2,9.9
		C687.4,281.9,681.1,283,674,283z M674.1,236.2c3.9,0,7.3-1,10-2.9c2.8-1.9,4.9-4.7,6.3-8.2c1.4-3.6,2.1-7.9,2.1-12.9
		c0-4.9-0.7-9.3-2.1-13c-1.4-3.7-3.5-6.6-6.2-8.7c-2.7-2.1-6.1-3.1-10.1-3.1c-4.1,0-7.6,1.1-10.3,3.2c-2.8,2.1-4.8,5.1-6.2,8.8
		c-1.4,3.7-2.1,8-2.1,12.7c0,4.8,0.7,9,2.1,12.6c1.4,3.6,3.5,6.4,6.3,8.4C666.7,235.2,670.1,236.2,674.1,236.2z"/>
	<path class="st0" d="M739.2,162.1c-2.9,0-5.5-1-7.6-2.9c-2.1-2-3.2-4.3-3.2-7.1c0-2.8,1.1-5.2,3.2-7.1c2.1-2,4.6-2.9,7.6-2.9
		c3,0,5.5,1,7.6,2.9c2.1,2,3.1,4.3,3.1,7.1c0,2.8-1,5.1-3.1,7.1C744.7,161.1,742.2,162.1,739.2,162.1z M729.9,251.9v-78.6h18.5v78.6
		H729.9z"/>
	<path class="st0" d="M806.8,173.3v14.3h-45.2v-14.3H806.8z M772.7,154.4h18.5v73.8c0,2.5,0.4,4.4,1.2,5.7c0.8,1.3,1.8,2.2,3,2.7
		s2.7,0.7,4.2,0.7c1.2,0,2.2-0.1,3.2-0.3c1-0.2,1.7-0.3,2.2-0.5l3.1,14.5c-1,0.3-2.4,0.7-4.2,1.1c-1.8,0.4-4.1,0.6-6.7,0.7
		c-4.6,0.1-8.8-0.6-12.5-2.1c-3.7-1.6-6.7-4-8.8-7.2c-2.2-3.3-3.2-7.4-3.2-12.3V154.4z"/>
	<path class="st0" d="M844.9,253.5c-5,0-9.5-0.9-13.4-2.7c-4-1.8-7.1-4.4-9.4-8c-2.3-3.5-3.5-7.8-3.5-13c0-4.4,0.8-8.1,2.5-11
		c1.6-2.9,3.9-5.2,6.7-7s6-3.1,9.6-4c3.6-0.9,7.3-1.6,11.1-2c4.6-0.5,8.3-0.9,11.2-1.3c2.9-0.4,5-1,6.3-1.8c1.3-0.8,2-2.1,2-3.9
		v-0.3c0-3.9-1.1-6.8-3.4-9c-2.3-2.1-5.6-3.2-9.9-3.2c-4.5,0-8.1,1-10.8,3c-2.6,2-4.4,4.3-5.3,7l-17.3-2.5c1.4-4.8,3.6-8.8,6.8-12
		c3.1-3.2,7-5.6,11.5-7.3c4.5-1.6,9.6-2.4,15-2.4c3.8,0,7.6,0.4,11.3,1.3c3.8,0.9,7.2,2.3,10.3,4.4c3.1,2,5.6,4.8,7.5,8.3
		c1.9,3.5,2.8,7.8,2.8,13.1v52.6h-17.8v-10.8H868c-1.1,2.2-2.7,4.2-4.7,6.1c-2,1.9-4.6,3.4-7.6,4.6
		C852.6,252.9,849,253.5,844.9,253.5z M849.7,239.9c3.7,0,6.9-0.7,9.7-2.2c2.7-1.5,4.8-3.5,6.3-5.9c1.5-2.5,2.2-5.1,2.2-8v-9.3
		c-0.6,0.5-1.6,0.9-2.9,1.3c-1.4,0.4-2.9,0.8-4.6,1.1c-1.7,0.3-3.4,0.6-5.1,0.8c-1.7,0.2-3.1,0.4-4.4,0.6c-2.8,0.4-5.2,1-7.4,1.8
		c-2.2,0.9-3.9,2-5.2,3.6c-1.3,1.5-1.9,3.5-1.9,5.9c0,3.4,1.2,6,3.7,7.7C842.7,239,845.8,239.9,849.7,239.9z"/>
	<path class="st0" d="M923.6,147.1v104.8h-18.5V147.1H923.6z"/>
	<path class="st0" d="M961.2,205.8v46.1h-18.5V147.1h18.1v39.6h0.9c1.8-4.4,4.7-7.9,8.6-10.5c3.9-2.6,8.8-3.9,14.8-3.9
		c5.5,0,10.2,1.1,14.3,3.4c4.1,2.3,7.2,5.6,9.4,10c2.2,4.4,3.4,9.8,3.4,16.1v50.1h-18.5v-47.2c0-5.3-1.4-9.4-4.1-12.4
		c-2.7-3-6.5-4.4-11.4-4.4c-3.3,0-6.2,0.7-8.8,2.1c-2.6,1.4-4.6,3.5-6,6.1S961.2,202,961.2,205.8z"/>
	<path class="st0" d="M1081.1,218.8v-45.6h18.5v78.6h-18v-14h-0.8c-1.8,4.4-4.7,8-8.7,10.8c-4,2.8-9,4.2-14.9,4.2
		c-5.2,0-9.7-1.2-13.6-3.5c-3.9-2.3-7-5.7-9.2-10.1c-2.2-4.4-3.3-9.8-3.3-16v-50.1h18.5v47.2c0,5,1.4,8.9,4.1,11.9
		c2.7,2.9,6.3,4.4,10.7,4.4c2.7,0,5.4-0.7,7.9-2c2.6-1.3,4.7-3.3,6.3-6S1081.1,222.8,1081.1,218.8z"/>
	<path class="st0" d="M1119.5,251.9V147.1h18.5v39.2h0.8c1-1.9,2.3-3.9,4-6.1c1.7-2.2,4.1-4,7.1-5.6c3-1.6,6.8-2.3,11.4-2.3
		c6.1,0,11.6,1.5,16.5,4.6c4.9,3.1,8.8,7.6,11.7,13.7c2.9,6,4.3,13.4,4.3,22.1c0,8.6-1.4,16-4.2,22c-2.8,6-6.7,10.6-11.6,13.8
		c-4.9,3.2-10.4,4.8-16.6,4.8c-4.5,0-8.2-0.8-11.2-2.3c-3-1.5-5.3-3.3-7.1-5.5c-1.8-2.1-3.2-4.2-4.2-6.1h-1.1v12.4H1119.5z
		 M1137.6,212.6c0,5.1,0.7,9.5,2.2,13.4s3.5,6.8,6.3,8.9c2.7,2.1,6.1,3.2,10,3.2c4.1,0,7.5-1.1,10.3-3.3c2.8-2.2,4.9-5.2,6.3-9.1
		c1.4-3.8,2.1-8.2,2.1-13.1c0-4.9-0.7-9.2-2.1-13c-1.4-3.8-3.5-6.8-6.2-8.9s-6.2-3.2-10.3-3.2c-4,0-7.3,1-10.1,3.1
		c-2.8,2.1-4.9,5-6.3,8.8C1138.4,203.1,1137.6,207.5,1137.6,212.6z"/>
</g>
</svg>
